<?xml version="1.0" encoding="iso-8859-1"?>
<!-- Generator: Adobe Illustrator 19.0.0, SVG Export Plug-In . SVG Version: 6.00 Build 0)  -->
<svg version="1.1" id="Layer_1" xmlns="http://www.w3.org/2000/svg" xmlns:xlink="http://www.w3.org/1999/xlink" x="0px" y="0px"
	 viewBox="0 0 512 512" style="enable-background:new 0 0 512 512;" xml:space="preserve">
<circle style="fill:#F0FDFF;" cx="256" cy="256" r="256"/>
<path style="fill:#6E9BE0;" d="M122.255,301.092c-36.771,0-66.684-29.921-66.684-66.692s29.912-66.676,66.684-66.676
	c36.762,0,66.676,29.905,66.676,66.676S159.018,301.092,122.255,301.092z M122.255,185.303c-27.081,0-49.106,22.025-49.106,49.097
	c0,27.089,22.025,49.114,49.106,49.114c27.072,0,49.097-22.025,49.097-49.114C171.352,207.328,149.327,185.303,122.255,185.303z"/>
<path style="fill:#413241;" d="M255.633,301.092c-36.771,0-66.684-29.921-66.684-66.692s29.913-66.676,66.684-66.676
	c36.762,0,66.676,29.905,66.676,66.676S292.395,301.092,255.633,301.092z M255.633,185.303c-27.081,0-49.106,22.025-49.106,49.097
	c0,27.089,22.025,49.114,49.106,49.114c27.072,0,49.097-22.025,49.097-49.114C304.729,207.328,282.705,185.303,255.633,185.303z"/>
<path style="fill:#00D77D;" d="M322.238,358.401c-36.771,0-66.684-29.905-66.684-66.676s29.913-66.692,66.684-66.692
	c36.762,0,66.676,29.921,66.676,66.692S359,358.401,322.238,358.401z M322.238,242.612c-27.081,0-49.106,22.025-49.106,49.114
	c0,27.072,22.025,49.097,49.106,49.097c27.072,0,49.097-22.025,49.097-49.097C371.335,264.637,349.31,242.612,322.238,242.612z"/>
<path style="fill:#FFF046;" d="M189.018,225.033c-0.276,0-0.543,0.039-0.819,0.042c0.43,3.055,0.73,6.153,0.73,9.325
	c0,2.803-0.265,5.537-0.605,8.247c0.233-0.003,0.459-0.035,0.693-0.035c27.081,0,49.106,22.025,49.106,49.113
	c0,27.072-22.025,49.097-49.106,49.097c-27.072,0-49.097-22.025-49.097-49.097c0-20.225,12.284-37.618,29.772-45.138
	c1.007-3.912,1.656-7.967,1.656-12.189c0-2.305-0.215-4.556-0.524-6.778c-27.938,7.948-48.483,33.647-48.483,64.105
	c0,36.771,29.912,66.676,66.675,66.676c36.771,0,66.685-29.905,66.685-66.676C255.703,254.954,225.791,225.033,189.018,225.033z"/>
<g>
	<path style="fill:#413241;" d="M255.633,185.303c27.072,0,49.097,22.025,49.097,49.097c0,20.273-12.338,37.704-29.891,45.195
		c-1.007,3.898-1.705,7.919-1.705,12.131c0,2.319,0.217,4.585,0.531,6.82c28.02-7.895,48.646-33.631,48.646-64.147
		c0-36.771-29.912-66.675-66.675-66.675c-33.597,0-61.391,24.989-65.953,57.345c6.026,0.06,11.832,0.982,17.372,2.553
		C210.37,203.754,230.858,185.303,255.633,185.303z"/>
	<path style="fill:#413241;" d="M255.554,291.725c0-2.796,0.234-5.532,0.573-8.236c-0.166,0.001-0.327,0.025-0.493,0.025
		c-22.882,0-42.099-15.747-47.524-36.967c-5.727-2.441-11.997-3.818-18.593-3.886c4.089,32.881,32.148,58.432,66.118,58.432
		c0.221,0,0.433-0.031,0.652-0.033C255.853,298.002,255.554,294.901,255.554,291.725z"/>
</g>
<path style="fill:#FF5050;" d="M389.011,167.724c-33.604,0-61.404,25-65.956,57.366c6.015,0.074,11.85,0.902,17.384,2.475
	c3.343-23.84,23.818-42.262,48.573-42.262c27.072,0,49.097,22.025,49.097,49.097c0,27.09-22.025,49.114-49.097,49.114
	c-22.856,0-42.055-15.711-47.506-36.894c-5.729-2.467-12.006-3.878-18.613-3.966c4.086,32.884,32.147,58.438,66.118,58.438
	c36.762,0,66.675-29.921,66.675-66.692C455.686,197.629,425.773,167.724,389.011,167.724z"/>
<g>
</g>
<g>
</g>
<g>
</g>
<g>
</g>
<g>
</g>
<g>
</g>
<g>
</g>
<g>
</g>
<g>
</g>
<g>
</g>
<g>
</g>
<g>
</g>
<g>
</g>
<g>
</g>
<g>
</g>
</svg>
